# AST/ASF file generated using VICON BodyLanguage
# -----------------------------------------------
:version 1.10
:name VICON
:units
  mass 1.0
  length 0.45
  angle deg
:documentation
   .ast/.asf automatically generated from VICON data using
   VICON BodyBuilder and BodyLanguage model FoxedUp or BRILLIANT.MOD
:root
   order TX TY TZ RX RY RZ
   axis XYZ
   position 0 0 0  
   orientation 0 0 0 
:bonedata
  begin
     id 1 
     name lhipjoint
     direction 0.630305 -0.712092 0.309259 
     length 2.29033 
     axis 0 0 0  XYZ
  end
  begin
     id 2 
     name lfemur
     direction 0.34202 -0.939693 0  
     length 6.43538  
     axis 0 0 20  XYZ
    dof rx ry rz
    limits (-160.0 20.0)
           (-70.0 70.0)
           (-60.0 70.0)
  end
  begin
     id 3 
     name ltibia
     direction 0.34202 -0.939693 0   
     length 7.43097   
     axis 0 0 20   XYZ
    dof rx
    limits (-10.0 170.0)
  end
  begin
     id 4 
     name lfoot
     direction 0.0334653 -0.0919451 0.995202   
     length 1.78438   
     axis -90 7.62852e-016 20   XYZ
    dof rx rz
    limits (-45.0 90.0)
           (-70.0 20.0)
  end
  begin
     id 5 
     name ltoes
     direction 1.53535e-011 -4.21933e-011 1   
     length 0.90832   
     axis -90 7.62852e-016 20   XYZ
    dof rx
    limits (-90.0 20.0)
  end
  begin
     id 6 
     name rhipjoint
     direction -0.682059 -0.67077 0.291312   
     length 2.43143  
     axis 0 0 0  XYZ 
  end
  begin
     id 7 
     name rfemur
     direction -0.34202 -0.939693 0   
     length 6.63488   
     axis 0 0 -20   XYZ
    dof rx ry rz
    limits (-160.0 20.0)
           (-70.0 70.0)
           (-70.0 60.0)
  end
  begin
     id 8 
     name rtibia
     direction -0.34202 -0.939693 0   
     length 6.86532   
     axis 0 0 -20   XYZ
    dof rx
    limits (-10.0 170.0)
 end
 begin
     id 9 
     name rfoot
     direction -0.105199 -0.289033 0.951521   
     length 1.77126  
     axis -90 -7.62852e-016 -20   XYZ
    dof rx rz
    limits (-45.0 90.0)
           (-20.0 70.0)
  end
  begin
     id 10 
     name rtoes
     direction -1.53551e-011 -4.21978e-011 1   
     length 0.889273   
     axis -90 -7.62852e-016 -20   XYZ
    dof rx
    limits (-90.0 20.0)
  end
  begin
     id 11 
     name lowerback
     direction -0.0514305 0.998089 0.034245   
     length 2.02077   
     axis 0 0 0   XYZ
    dof rx ry rz
    limits (-20.0 45.0)
           (-30.0 30.0)
           (-30.0 30.0)
  end
  begin
     id 12 
     name upperback
     direction 0.0203189 0.999449 -0.0262315   
     length 2.01413   
     axis 0 0 0   XYZ
    dof rx ry rz
    limits (-20.0 45.0)
           (-30.0 30.0)
           (-30.0 30.0)
  end
  begin
     id 13 
     name thorax
     direction 0.0452736 0.998142 -0.0407729   
     length 2.02986   
     axis 0 0 0   XYZ
    dof rx ry rz
    limits (-20.0 45.0)
           (-30.0 30.0)
           (-30.0 30.0)
  end
  begin
     id 14 
     name lowerneck
     direction -0.0180464 0.999645 -0.0195774   
     length 1.59034   
     axis 0 0 0   XYZ
    dof rx ry rz
    limits (-20.0 45.0)
           (-30.0 30.0)
           (-30.0 30.0)
  end
  begin
     id 15 
     name upperneck
     direction 0.0732272 0.979935 -0.18538   
     length 1.57486   
     axis 0 0 0   XYZ
    dof rx ry rz
    limits (-20.0 45.0)
           (-30.0 30.0)
           (-30.0 30.0)
  end
  begin
     id 16
     name head
     direction 0.0252963 0.997909 -0.059472  
     length 1.60334  
     axis 0 0 0   XYZ
    dof rx ry rz
    limits (-20.0 45.0)
           (-30.0 30.0)
           (-30.0 30.0)
  end
  begin
     id 17 
     name lclavicle
     direction 0.943819 0.330449 0.00315172  
     length 3.50322  
     axis 0 0 0   XYZ
    dof ry rz
    limits (-20.0 10.0)
           (0.0 20.0)
  end
  begin
     id 18 
     name lhumerus
     direction 1 -4.48949e-011 2.22502e-028   
     length 4.63208   
     axis 180 -30 -90   XYZ
    dof rx ry rz
    limits (-60.0 90.0)
           (-90.0 90.0)
           (-90.0 90.0)
  end
  begin
     id 19
     name lradius
     direction 1 -4.48967e-011 -4.10197e-027   
     length 3.41924   
     axis 180 -30 -90   XYZ
    dof rx
    limits (-10.0 170.0)
  end
  begin
     id 20
     name lwrist
     direction 1 -4.48987e-011 -1.24264e-027   
     length 1.70962   
     axis 2.50585e-015 90 90   XYZ
    dof ry
    limits (-180.0 0.0)
 end
  begin
     id 21 
     name lhand
     direction 1 -4.48983e-011 -2.48528e-027   
     length 0.62537   
     axis 1.58582e-015 90 90   XYZ
    dof rx rz
    limits (-90.0 90.0)
           (-45.0 45.0)
  end
  begin
     id 22 
     name lfingers
     direction 1 -4.48896e-011 -4.97056e-027   
     length 0.50419   
     axis 3.17164e-015 90 90   XYZ
    dof rx
    limits (0.0 90.0)
  end
  begin
     id 23
     name lthumb
     direction 0.707107 -6.34803e-011 0.707107   
     length 0.723919   
     axis -90 45 2.85299e-015   XYZ
    dof rx rz
    limits (-45.0 45.0)
           (-45.0 45.0)
  end
  begin
     id 24 
     name rclavicle
     direction -0.964499 0.260664 -0.0423695   
     length 3.91997  
     axis 0 0 0   XYZ 
    dof ry rz
    limits (-10.0 20.0)
           (-20.0 0.0)
  end
  begin
     id 25 
     name rhumerus
     direction -1 -4.48957e-011 -1.98656e-027  
     length 4.4064   
     axis 180 30 90   XYZ
    dof rx ry rz
    limits (-90.0 60.0)
           (-90.0 90.0)
           (-90.0 90.0)
  end
  begin
     id 26 
     name rradius
     direction -1 -4.48968e-011 1.96972e-027   
     length 3.44675   
     axis 180 30 90   XYZ
    dof rx
    limits (-10.0 170.0)
  end
  begin
     id 27 
     name rwrist
     direction -1 -4.48974e-011 -1.24264e-027   
     length 1.72338   
     axis 2.50585e-015 -90 -90   XYZ
    dof ry
    limits (-180.0 0.0)
  end
  begin
     id 28
     name rhand
     direction -1 -4.48901e-011 -2.48528e-027   
     length 0.513674   
     axis 1.58582e-015 -90 -90   XYZ
    dof rx rz
    limits (-90.0 90.0)
           (-45.0 45.0)
  end
  begin
     id 29
     name rfingers
     direction -1 -4.48946e-011 -4.97056e-027   
     length 0.414137   
     axis 3.17164e-015 -90 -90   XYZ
    dof rx
    limits (0.0 90.0)
  end
  begin
     id 30
     name rthumb
     direction -0.707107 -6.34859e-011 0.707107   
     length 0.59462   
     axis -90 -45 -2.85299e-015   XYZ
    dof rx rz
    limits (-45.0 45.0)
           (-45.0 45.0)
  end
:hierarchy
  begin
    root lhipjoint rhipjoint lowerback
    lhipjoint lfemur
    lfemur ltibia
    ltibia lfoot
    lfoot ltoes
    rhipjoint rfemur
    rfemur rtibia
    rtibia rfoot
    rfoot rtoes
    lowerback upperback
    upperback thorax
    thorax lowerneck lclavicle rclavicle
    lowerneck upperneck
    upperneck head
    lclavicle lhumerus
    lhumerus lradius
    lradius lwrist
    lwrist lhand lthumb
    lhand lfingers
    rclavicle rhumerus
    rhumerus rradius
    rradius rwrist
    rwrist rhand rthumb
    rhand rfingers
  end

#!OML:ASF E:\inclinewalkrobotboard\Project 1\Capture day 1\Session 1\subject1.ASF
:FULLY-SPECIFIED
:DEGREES
135
root 7.60848 16.618 3.30497 -148.207 -42.1099 158.428
lowerback 0.12529 0.176822 -3.69967
upperback -3.22142 -0.0646577 9.048
thorax -3.45912 0.0336075 11.8403
lowerneck -12.2284 -3.24904 -2.45502
upperneck 0.507936 -4.0243 -6.81555
head 2.18929 -2.38604 -2.01309
rclavicle 3.4191e-014 3.18055e-014
rhumerus 10.5828 -48.4173 -81.628
rradius 19.1827
rwrist -16.4659
rhand 1.15276 -20.5112
rfingers 7.12502
rthumb 26.694 -48.6486
lclavicle 3.4191e-014 3.18055e-014
lhumerus 49.092 24.1065 23.5927
lradius 62.9095
lwrist -15.8697
lhand -45.8639 -29.4057
lfingers 7.12502
lthumb -18.6148 -0.276361
rfemur -25.6786 1.10614 2.71122
rtibia 29.4543
rfoot -11.4194 -0.125627
rtoes -28.9381
lfemur 3.5484 -7.85016 -17.6387
ltibia 4.45278e-014
lfoot 38.5508 28.6405
ltoes -65.5012
136
root 7.63128 16.5943 3.29743 -148.247 -41.7906 157.99
lowerback 0.197985 0.139252 -4.33552
upperback -3.10481 -0.102661 8.84703
thorax -3.37138 0.036827 11.9969
lowerneck -12.3789 -3.21115 -2.46727
upperneck 1.01063 -3.91776 -6.88776
head 2.38959 -2.3484 -2.04709
rclavicle 1.35174e-014 2.8625e-014
rhumerus 10.3355 -48.2642 -81.87
rradius 19.2916
rwrist -16.3375
rhand 1.08947 -20.6094
rfingers 7.12502
rthumb 26.6335 -48.756
lclavicle 1.35174e-014 2.8625e-014
lhumerus 49.1334 23.8032 23.5931
lradius 62.7874
lwrist -16.162
lhand -46.0184 -28.9087
lfingers 7.12502
lthumb -18.7633 0.206369
rfemur -25.3467 1.4324 2.30016
rtibia 29.4047
rfoot -12.3139 -0.220542
rtoes -27.7224
lfemur 3.90435 -7.85654 -18.1038
ltibia -1.27222e-014
lfoot 38.6754 28.7183
ltoes -65.2346
137
root 7.65366 16.5673 3.28797 -148.456 -41.7099 158.034
lowerback 0.112839 0.074633 -4.54644
upperback -3.03612 -0.187319 8.78928
thorax -3.23073 -0.00561686 12.0582
lowerneck -12.6172 -3.1263 -2.61084
upperneck 1.52154 -3.72862 -6.84868
head 2.61643 -2.26912 -2.01901
rclavicle 2.06736e-014 6.04305e-014
rhumerus 9.91715 -47.7639 -81.9814
rradius 19.475
rwrist -16.2861
rhand 0.80896 -20.9357
rfingers 7.12502
rthumb 26.365 -49.1228
lclavicle 2.06736e-014 6.04305e-014
lhumerus 49.1198 23.4997 23.6023
lradius 62.6159
lwrist -16.4023
lhand -46.3469 -28.6556
lfingers 7.12502
lthumb -19.0793 0.428566
rfemur -25.0937 1.75595 2.38656
rtibia 29.2639
rfoot -13.2465 -0.370451
rtoes -26.2145
lfemur 3.14369 -7.79951 -18.0498
ltibia 1.85832
lfoot 37.8994 28.5712
ltoes -64.987
138
root 7.6727 16.5402 3.28295 -148.656 -41.8116 158.332
lowerback -0.0934527 -0.0185405 -4.35936
upperback -3.07553 -0.311308 8.76969
thorax -3.12362 -0.0795068 11.9199
lowerneck -12.8263 -3.00913 -2.69159
upperneck 2.01227 -3.50664 -6.90832
head 2.8312 -2.17769 -2.031
rclavicle 5.56597e-015 -7.95139e-014
rhumerus 9.32252 -47.208 -81.9937
rradius 19.692
rwrist -16.6462
rhand 0.670405 -20.9238
rfingers 7.12502
rthumb 26.2323 -49.1307
lclavicle 5.56597e-015 -7.95139e-014
lhumerus 49.1887 23.2425 23.713
lradius 62.2959
lwrist -16.7154
lhand -46.2508 -28.9207
lfingers 7.12502
lthumb -18.9869 0.17256
rfemur -24.9549 1.8026 2.77802
rtibia 29.0031
rfoot -13.9219 -0.383999
rtoes -26.042
lfemur 1.68412 -7.7523 -17.6834
ltibia 4.72289
lfoot 36.4842 28.2479
ltoes -64.8223
139
root 7.69673 16.5136 3.27109 -148.986 -41.7612 158.715
lowerback -0.209412 -0.00363187 -4.28456
upperback -3.1176 -0.289418 8.72648
thorax -3.10662 -0.0708851 11.8225
lowerneck -12.8462 -2.91071 -2.75428
upperneck 2.39853 -3.32866 -6.90348
head 2.97454 -2.09774 -2.0181
rclavicle 4.13472e-014 -7.31528e-014
rhumerus 8.718 -46.9057 -81.9738
rradius 19.892
rwrist -17.1726
rhand 0.600949 -20.3629
rfingers 7.12502
rthumb 26.1659 -48.5796
lclavicle 4.13472e-014 -7.31528e-014
lhumerus 49.3611 22.9395 23.8683
lradius 62.0477
lwrist -16.9521
lhand -46.1166 -29.1041
lfingers 7.12502
lthumb -18.8578 0.00183255
rfemur -24.7293 2.21609 3.14836
rtibia 28.6142
rfoot -14.6353 -0.576431
rtoes -25.5164
lfemur 0.675229 -7.57087 -17.3122
ltibia 6.99511
lfoot 35.2837 27.9576
ltoes -64.5933
140
root 7.71733 16.4891 3.26613 -149.046 -41.5688 158.93
lowerback -0.497393 -0.0148255 -4.23066
upperback -3.13684 -0.297028 8.58698
thorax -2.95985 -0.0813671 11.6237
lowerneck -12.891 -2.75861 -2.56359
upperneck 2.65114 -3.12209 -7.08264
head 3.07234 -2.00736 -2.10756
rclavicle -4.29375e-014 -9.22361e-014
rhumerus 8.32024 -46.4713 -82.2059
rradius 20.1285
rwrist -17.7207
rhand 0.481556 -19.7561
rfingers 7.12502
rthumb 26.0515 -47.9897
lclavicle -4.29375e-014 -9.22361e-014
lhumerus 49.2265 22.7343 23.5703
lradius 62.0897
lwrist -16.8861
lhand -46.188 -28.5716
lfingers 7.12502
lthumb -18.9265 0.52759
rfemur -24.6677 2.42528 3.29848
rtibia 28.0839
rfoot -15.2889 -0.523019
rtoes -23.2256
lfemur -0.403147 -7.33095 -17.1496
ltibia 9.0486
lfoot 34.2364 27.5627
ltoes -64.3164
141
root 7.73821 16.4549 3.25544 -149.613 -41.5633 159.299
lowerback -0.466042 -0.0746829 -4.1192
upperback -3.01027 -0.377251 8.55755
thorax -2.8242 -0.134038 11.5194
lowerneck -13.0468 -2.56147 -2.12318
upperneck 2.91271 -2.87965 -7.55283
head 3.19227 -1.91435 -2.34303
rclavicle 4.29375e-014 2.54444e-014
rhumerus 8.10361 -45.9868 -82.5246
rradius 20.3355
rwrist -18.1036
rhand 0.354258 -19.6256
rfingers 7.12502
rthumb 25.9296 -47.8771
lclavicle 4.29375e-014 2.54444e-014
lhumerus 48.7424 22.6384 23.0181
lradius 62.3053
lwrist -16.6976
lhand -46.093 -28.3174
lfingers 7.12502
lthumb -18.8352 0.790702
rfemur -24.1058 2.90037 3.66229
rtibia 27.5963
rfoot -16.0604 -0.581869
rtoes -20.4671
lfemur -0.702141 -7.24015 -16.806
ltibia 10.5078
lfoot 33.3433 27.1255
ltoes -64.0901
